<?xml version="1.0" standalone="no"?>
<!DOCTYPE svg PUBLIC "-//W3C//DTD SVG 20010904//EN"
 "http://www.w3.org/TR/2001/REC-SVG-20010904/DTD/svg10.dtd">
<svg version="1.0" xmlns="http://www.w3.org/2000/svg"
 width="180.000000pt" height="180.000000pt" viewBox="0 0 180.000000 180.000000"
 preserveAspectRatio="xMidYMid meet">
<metadata>
Created by potrace 1.11, written by Peter Selinger 2001-2013
</metadata>
<g transform="translate(0.000000,180.000000) scale(0.100000,-0.100000)"
fill="#000000" stroke="none">
<path d="M663 1696 c-15 -8 -12 -12 19 -25 34 -15 36 -17 22 -35 -11 -16 -14
-17 -14 -4 0 11 -14 17 -52 20 -60 6 -98 -7 -98 -34 0 -14 -8 -18 -37 -18 -21
-1 -49 -7 -63 -15 -24 -14 -22 -14 35 -17 33 -1 70 -2 83 -2 21 0 22 -4 20
-66 l-2 -65 -3 58 c-4 57 -5 58 -31 56 -15 -2 -33 1 -41 5 -10 7 -12 5 -6 -3
6 -10 3 -11 -15 -1 -14 8 -26 8 -32 2 -11 -11 -14 -109 -3 -133 3 -10 2 -20
-4 -24 -6 -3 -11 -16 -10 -28 0 -21 1 -21 9 -2 8 19 9 19 9 -2 1 -13 4 -23 9
-24 4 0 57 -2 117 -4 61 -3 162 -9 225 -14 182 -16 461 -34 464 -30 2 2 6 54
10 116 l7 112 -83 4 -83 3 88 2 87 2 0 -32 c0 -18 -3 -76 -6 -128 l-7 -95
-101 8 c-55 4 -216 16 -356 25 l-255 17 3 -105 c1 -58 8 -122 14 -142 7 -23 9
-81 6 -152 -4 -74 -2 -116 5 -116 6 0 8 -51 5 -139 -2 -77 -1 -138 4 -135 21
13 5 -49 -21 -76 -16 -18 -35 -44 -42 -58 -8 -15 -20 -31 -26 -35 -7 -4 -13
-14 -13 -22 0 -7 -6 -15 -12 -18 -20 -7 17 -13 367 -62 432 -60 385 -46 386
-108 0 -48 4 -40 55 123 31 97 56 197 57 225 l2 49 -48 7 c-27 4 -50 9 -52 11
-1 2 1 55 6 118 4 63 13 223 19 354 l11 240 54 87 55 88 6 111 7 110 -79 0
c-97 0 -127 -7 -119 -27 3 -10 1 -13 -7 -10 -9 3 -13 -6 -13 -27 0 -26 -5 -32
-30 -38 -28 -7 -28 -7 7 -5 20 2 34 -1 32 -5 -3 -4 -31 -8 -63 -8 -66 0 -91
18 -91 64 0 19 -4 27 -13 23 -8 -3 -20 -2 -27 3 -8 5 1 9 24 12 l36 4 0 -43
c0 -36 3 -43 20 -43 18 0 20 7 20 55 l0 55 -70 0 -71 0 5 -50 5 -51 -62 3
c-62 3 -62 3 -65 36 -2 17 -9 32 -15 32 -8 0 -8 3 1 9 11 6 11 10 0 18 -17 14
-154 21 -175 9z m611 -59 c-2 -7 -14 -19 -27 -26 -22 -14 -22 -14 -4 7 18 20
18 20 0 25 -12 3 -9 5 9 6 18 1 26 -3 22 -12z m65 -79 c-1 -22 -3 -26 -6 -12
-3 17 -15 24 -56 31 l-52 10 58 2 57 1 -1 -32z m-419 -20 c0 -5 0 -14 0 -20 0
-7 -5 -5 -11 5 -8 13 -23 17 -69 17 -53 0 -60 -2 -60 -20 0 -11 1 -23 3 -26 1
-3 -11 -13 -26 -21 -27 -14 -28 -15 -10 -29 17 -14 15 -15 -17 -9 -41 8 -73 8
-115 0 -28 -5 -28 -4 5 8 19 8 47 13 63 12 20 -1 26 2 23 12 -4 9 4 13 24 13
28 0 30 3 30 38 l0 37 80 -5 c44 -3 80 -8 80 -12z m-450 -3 c7 -9 8 -15 2 -15
-5 0 -12 7 -16 15 -3 8 -4 15 -2 15 2 0 9 -7 16 -15z m452 -107 c-9 -9 -12 -1
-11 33 l1 44 11 -33 c7 -24 7 -36 -1 -44z m166 4 l15 -22 -89 1 -88 2 65 22
c74 26 77 26 97 -3z m89 -494 c-2 -29 -3 -6 -3 52 0 58 1 81 3 53 2 -29 2 -77
0 -105z m-274 105 c-13 -2 -35 -2 -50 0 -16 2 -5 4 22 4 28 0 40 -2 28 -4z
m-106 -35 c-3 -8 -6 -5 -6 6 -1 11 2 17 5 13 3 -3 4 -12 1 -19z m150 -10 c-3
-7 -5 -2 -5 12 0 14 2 19 5 13 2 -7 2 -19 0 -25z m-137 -65 c0 -26 -3 -44 -6
-41 -9 9 -11 98 -2 92 4 -3 8 -26 8 -51z m27 -59 c-3 -3 -12 -4 -19 -1 -8 3
-5 6 6 6 11 1 17 -2 13 -5z m330 -176 c-2 -35 -3 -7 -3 62 0 69 1 97 3 63 2
-35 2 -91 0 -125z m-10 -270 c-2 -35 -3 -7 -3 62 0 69 1 97 3 63 2 -35 2 -91
0 -125z m-533 -70 c7 -5 5 -8 -6 -8 -13 0 -18 7 -17 28 1 21 2 22 6 7 3 -11
10 -23 17 -27z m523 -65 c-2 -16 -4 -5 -4 22 0 28 2 40 4 28 2 -13 2 -35 0
-50z m-434 50 c-7 -2 -21 -2 -30 0 -10 3 -4 5 12 5 17 0 24 -2 18 -5z m80 -10
c-7 -2 -19 -2 -25 0 -7 3 -2 5 12 5 14 0 19 -2 13 -5z m70 -10 c-7 -2 -21 -2
-30 0 -10 3 -4 5 12 5 17 0 24 -2 18 -5z m64 -9 c-3 -3 -12 -4 -19 -1 -8 3 -5
6 6 6 11 1 17 -2 13 -5z m150 -20 c-3 -3 -12 -4 -19 -1 -8 3 -5 6 6 6 11 1 17
-2 13 -5z"/>
<path d="M478 255 c3 -29 8 -35 28 -35 13 0 24 -4 24 -10 0 -5 13 -7 29 -4 16
3 32 1 35 -5 4 -6 20 -8 36 -4 20 3 30 1 30 -6 0 -8 11 -10 35 -5 22 4 35 2
35 -4 0 -7 14 -9 35 -5 22 4 35 2 35 -5 0 -7 11 -9 29 -6 16 4 32 1 35 -5 4
-6 18 -8 32 -5 13 3 31 1 39 -6 8 -6 23 -9 34 -5 10 3 22 1 26 -5 4 -6 20 -8
41 -4 23 4 34 2 34 -6 0 -8 10 -9 29 -5 17 4 32 2 36 -5 4 -7 19 -9 35 -5 16
3 31 2 35 -4 14 -24 25 -9 25 34 0 29 -4 45 -12 45 -7 0 -175 23 -373 50 -198
27 -362 50 -365 50 -4 0 -4 -16 -2 -35z"/>
</g>
</svg>
